<?xml version="1.0" standalone="no"?>
<!DOCTYPE svg PUBLIC "-//W3C//DTD SVG 20010904//EN"
 "http://www.w3.org/TR/2001/REC-SVG-20010904/DTD/svg10.dtd">
<svg version="1.0" xmlns="http://www.w3.org/2000/svg"
 width="265.000000pt" height="265.000000pt" viewBox="0 0 265.000000 265.000000"
 preserveAspectRatio="xMidYMid meet">
<metadata>
Created by potrace 1.14, written by Peter Selinger 2001-2017
</metadata>
<g transform="translate(0.000000,265.000000) scale(0.100000,-0.100000)"
fill="#000000" stroke="none">
<path d="M470 2578 c-18 -13 -43 -36 -54 -51 -20 -27 -21 -43 -26 -380 -5
-298 -8 -358 -23 -394 -18 -46 -14 -95 9 -114 10 -9 14 -38 13 -113 -2 -92 -2
-96 -9 -41 -11 95 -56 145 -133 145 -37 0 -82 -29 -92 -60 -3 -10 -19 -21 -35
-25 -75 -17 -92 -113 -29 -168 25 -23 38 -28 68 -25 20 3 44 8 53 12 13 6 20
0 31 -26 25 -59 74 -86 121 -69 l26 11 0 -318 c0 -310 1 -319 23 -362 26 -54
89 -90 153 -90 36 0 44 -4 50 -22 20 -69 70 -76 124 -18 l38 41 163 -5 c90 -2
173 -4 184 -4 11 0 234 2 496 4 l475 4 25 -37 c54 -83 147 -109 208 -57 38 32
56 88 44 135 -7 24 -6 43 3 64 9 20 13 80 14 176 0 121 3 149 16 160 34 28 57
93 58 161 1 57 -2 70 -23 92 -14 14 -30 26 -38 26 -10 0 -13 121 -15 634 -3
626 -3 635 -24 663 -11 15 -36 38 -54 51 l-33 22 -887 0 -887 0 -33 -22z
m1666 -212 c38 -38 44 -77 19 -126 -46 -88 -185 -54 -185 45 0 103 97 150 166
81z m-637 -201 c113 -27 188 -70 277 -159 60 -60 90 -100 118 -156 164 -336 2
-743 -342 -862 -89 -30 -249 -32 -332 -4 -135 46 -238 122 -313 233 -69 100
-99 194 -105 323 -5 131 12 212 70 324 86 165 228 269 423 310 46 9 144 5 204
-9z"/>
<path d="M1248 2017 c-162 -56 -271 -178 -307 -345 -73 -344 238 -653 558
-553 84 26 137 60 199 125 99 105 146 257 123 397 -47 286 -317 463 -573 376z"/>
<path d="M261 1884 c-46 -33 -71 -143 -40 -180 33 -40 96 10 106 84 11 80 -21
127 -66 96z"/>
<path d="M69 1748 c-14 -19 -24 -51 -27 -83 -4 -44 -1 -56 18 -75 19 -19 24
-20 43 -7 41 27 59 63 60 115 0 28 -5 57 -12 66 -22 26 -57 19 -82 -16z"/>
<path d="M2464 859 c-28 -29 -29 -35 -34 -140 -4 -97 -3 -112 13 -127 41 -37
119 35 139 129 28 132 -43 216 -118 138z"/>
<path d="M829 477 c-19 -12 -43 -37 -54 -54 -15 -24 -28 -32 -48 -33 -19 0
-41 -12 -63 -34 -29 -29 -34 -41 -34 -79 0 -97 114 -167 200 -122 37 19 51 13
73 -35 38 -81 146 -108 209 -51 29 26 33 36 33 80 0 41 -5 55 -28 79 -25 26
-29 38 -30 95 -2 56 -6 70 -32 103 -61 75 -158 97 -226 51z"/>
<path d="M1250 456 c-40 -22 -74 -92 -75 -153 0 -92 61 -128 122 -71 56 52 70
182 23 220 -26 21 -37 22 -70 4z"/>
</g>
</svg>
